2.6Hz3min_grf.mot
version=1
nRows=22
nColumns 19
inDegrees=yes
endheader
time	1_ground_force_vx	1_ground_force_vy	1_ground_force_vz	1_ground_force_px	1_ground_force_py	1_ground_force_pz	1_ground_torque_x	1_ground_torque_y	1_ground_torque_z	2_ground_force_vx	2_ground_force_vy	2_ground_force_vz	2_ground_force_px	2_ground_force_py	2_ground_force_pz	2_ground_torque_x	2_ground_torque_y	2_ground_torque_z
            0.005000	           -0.555371	            0.729804	           -2.059059	           -0.189156	            0.006049	           -0.362920	            0.312875	            0.230497	            0.051922	           -0.231529	           -0.737941	            0.138256	           -0.185536	            0.005929	           -0.729960	            0.018906	           -0.046792	           -0.113278
            0.005500	           -0.509593	            1.090344	           -2.057627	           -0.189156	            0.006049	           -0.362920	            0.143661	            0.184349	            0.035288	           -0.088362	           -1.473692	            0.041711	           -0.185536	            0.005929	           -0.729960	            0.018752	            0.000337	           -0.075409
            0.006000	           -0.463475	            1.450294	           -1.918627	           -0.189156	            0.006049	           -0.362920	            0.099838	            0.184689	           -0.037853	           -0.137994	           -0.736264	           -0.237209	           -0.185536	            0.005929	           -0.729960	            0.037520	            0.009723	           -0.037683
            0.006500	           -0.371348	            0.908925	           -1.783606	           -0.189156	            0.006049	           -0.362920	            0.038286	            0.221214	            0.079174	            0.143064	           -0.734914	           -0.331185	           -0.185536	            0.005929	           -0.729960	            0.000129	           -0.046927	           -0.094420
            0.007000	           -0.141744	            1.268714	           -1.599205	           -0.189156	            0.006049	           -0.362920	            0.048850	            0.184677	            0.013560	           -0.091041	           -0.736932	           -0.002588	           -0.185536	            0.005929	           -0.729960	           -0.018914	            0.037676	            0.018993
            0.007500	           -0.370159	            0.005827	           -1.374767	           -0.189156	            0.006049	           -0.362920	            0.002273	            0.166164	           -0.014931	           -0.138618	           -0.552450	           -0.142696	           -0.185536	            0.005929	           -0.729960	           -0.018530	           -0.066371	            0.037472
            0.008000	           -0.553240	            0.906334	           -1.187024	           -0.189156	            0.006049	           -0.362920	            0.125266	            0.119893	           -0.023286	            0.190161	           -0.736754	            0.231933	           -0.185536	            0.005929	           -0.729960	           -0.000025	            0.000202	           -0.056551
            0.008500	           -0.232516	            0.005657	           -1.329253	           -0.189156	            0.006049	           -0.362920	            0.056518	            0.111021	           -0.065832	            0.096317	           -0.735920	           -0.096524	           -0.185536	            0.005929	           -0.729960	           -0.018794	           -0.000001	           -0.018842
            0.009000	           -0.186416	            1.086474	           -1.141305	           -0.189156	            0.006049	           -0.362920	            0.067164	            0.045702	            0.086162	            0.097002	           -0.920236	           -0.050253	           -0.185536	            0.005929	           -0.729960	           -0.094131	            0.056377	            0.000242
            0.009500	            0.090206	            0.002574	           -0.596354	           -0.189156	            0.006049	           -0.362920	            0.044088	            0.101868	           -0.033359	            0.048138	           -0.367793	           -0.095190	           -0.185536	            0.005929	           -0.729960	           -0.000041	            0.000336	           -0.094251
            0.010000	            0.457438	           -0.178408	           -0.414614	           -0.189156	            0.006049	           -0.362920	            0.036322	            0.139177	           -0.055132	            0.047453	           -0.183477	           -0.141461	           -0.185536	            0.005929	           -0.729960	           -0.112635	           -0.028563	           -0.056604
            0.010500	            0.365881	            0.361978	           -0.320356	           -0.189156	            0.006049	           -0.362920	            0.031926	            0.074675	           -0.115721	            0.003344	           -0.920909	            0.043643	           -0.185536	            0.005929	           -0.729960	            0.018898	           -0.046725	           -0.132128
            0.011000	            0.273919	            0.002019	           -0.459242	           -0.189156	            0.006049	           -0.362920	            0.038149	            0.102117	           -0.063121	            0.236908	           -0.735747	           -0.002728	           -0.185536	            0.005929	           -0.729960	           -0.000110	            0.019242	           -0.094184
            0.011500	            0.089622	           -0.537044	           -0.873809	           -0.189156	            0.006049	           -0.362920	           -0.037743	            0.120410	           -0.051856	            0.189435	           -0.552103	            0.091805	           -0.185536	            0.005929	           -0.729960	           -0.037357	           -0.066103	           -0.056771
            0.012000	           -0.369719	           -0.535560	           -1.239518	           -0.189156	            0.006049	           -0.362920	            0.015452	            0.064655	           -0.052976	            0.238902	           -1.288192	           -0.004699	           -0.185536	            0.005929	           -0.729960	           -0.037759	            0.056446	            0.037919
            0.012500	            0.043908	            0.003351	           -0.779664	           -0.189156	            0.006049	           -0.362920	           -0.079490	            0.046356	           -0.035245	            0.283758	           -0.735578	           -0.002748	           -0.185536	            0.005929	           -0.729960	            0.093902	            0.000541	           -0.056591
            0.013000	            0.043695	            0.544345	           -0.823201	           -0.189156	            0.006049	           -0.362920	           -0.077927	            0.037192	           -0.054106	            0.284505	           -0.920396	            0.184308	           -0.185536	            0.005929	           -0.729960	           -0.037621	            0.009452	           -0.037651
            0.013500	            0.090661	            0.001787	           -0.412931	           -0.189156	            0.006049	           -0.362920	           -0.076307	            0.037067	           -0.014540	            0.096358	           -0.736255	           -0.002668	           -0.185536	            0.005929	           -0.729960	           -0.037510	           -0.028158	           -0.094336
            0.014000	            0.228777	           -0.720035	           -0.232940	           -0.189156	            0.006049	           -0.362920	            0.028743	            0.074534	           -0.102741	            0.004091	           -1.105727	            0.230698	           -0.185536	            0.005929	           -0.729960	           -0.000007	           -0.009117	           -0.094285
            0.014500	            0.228777	           -0.720035	           -0.232940	           -0.189156	            0.006049	           -0.362920	           -0.121491	            0.130046	           -0.120928	            0.001953	           -0.552110	           -0.095827	           -0.185536	            0.005929	           -0.729960	           -0.000017	            0.000134	           -0.037700
            0.015000	           -0.001318	            0.362694	           -0.502869	           -0.189156	            0.006049	           -0.362920	           -0.091696	            0.074476	           -0.131053	            0.095694	           -0.552107	           -0.002011	           -0.185536	            0.005929	           -0.729960	            0.056169	            0.047601	           -0.037556
            0.015500	            0.089295	            0.004146	           -0.963202	           -0.189156	            0.006049	           -0.362920	           -0.128084	            0.101983	           -0.070528	            0.048261	           -0.368797	            0.186378	           -0.185536	            0.005929	           -0.729960	            0.056092	            0.066574	           -0.056338
